<svg xmlns="http://www.w3.org/2000/svg" viewBox="0 0 160 160" width="100%" height="100%">
  <defs>
    <linearGradient id="iconGradient" x1="0%" y1="100%" x2="100%" y2="0%">
      <stop offset="0%" stop-color="#06B6D4" />
      <stop offset="100%" stop-color="#10B981" />
    </linearGradient>
  </defs>

  <circle cx="80" cy="85" r="68" fill="none" stroke="url(#iconGradient)" stroke-width="6" opacity="0.8" />

  <g transform="translate(0, 5)">
    <path 
      d="M 45 95 C 20 65, 60 25, 80 55 C 100 25, 140 65, 115 95 C 95 120, 65 120, 45 95 Z" 
      fill="none"
      stroke="url(#iconGradient)" 
      stroke-width="10" 
      stroke-linecap="round" 
      stroke-linejoin="round"
    />
    <path 
      d="M 58 92 C 43 77, 65 52, 80 68 C 95 52, 117 77, 102 92" 
      fill="none"
      stroke="#FFFFFF" 
      stroke-width="5" 
      stroke-linecap="round" 
      opacity="0.9"
    />
  </g>

  <g transform="translate(52, 12)">
    <path d="M 28 28 Q 40 10 28 0 Q 12 12 28 28 Z" fill="url(#iconGradient)" />
    <path d="M 28 28 Q 45 15 52 2 Q 33 2 28 28 Z" fill="#06B6D4" />
  </g>
</svg>
